<?xml version="1.0" encoding="UTF-8" standalone="no"?>
<!-- Created with Inkscape (http://www.inkscape.org/) -->

<svg
   xmlns:dc="http://purl.org/dc/elements/1.1/"
   xmlns:cc="http://creativecommons.org/ns#"
   xmlns:rdf="http://www.w3.org/1999/02/22-rdf-syntax-ns#"
   xmlns:svg="http://www.w3.org/2000/svg"
   xmlns="http://www.w3.org/2000/svg"
   xmlns:sodipodi="http://sodipodi.sourceforge.net/DTD/sodipodi-0.dtd"
   xmlns:inkscape="http://www.inkscape.org/namespaces/inkscape"
   width="508.85742"
   height="146.05939"
   id="svg2"
   version="1.1"
   inkscape:version="0.48.4 r9939"
   sodipodi:docname="Sinclair_Broadcast_Group_Logo.svg">
  <defs
     id="defs4" />
  <sodipodi:namedview
     id="base"
     pagecolor="#ffffff"
     bordercolor="#666666"
     borderopacity="1.0"
     inkscape:pageopacity="0"
     inkscape:pageshadow="2"
     inkscape:zoom="1"
     inkscape:cx="248.22997"
     inkscape:cy="92.761671"
     inkscape:document-units="px"
     inkscape:current-layer="g4398"
     showgrid="false"
     inkscape:window-width="1024"
     inkscape:window-height="714"
     inkscape:window-x="-4"
     inkscape:window-y="-4"
     inkscape:window-maximized="1"
     fit-margin-top="0"
     fit-margin-left="0"
     fit-margin-right="0"
     fit-margin-bottom="0" />
  <metadata
     id="metadata7">
    <rdf:RDF>
      <cc:Work
         rdf:about="">
        <dc:format>image/svg+xml</dc:format>
        <dc:type
           rdf:resource="http://purl.org/dc/dcmitype/StillImage" />
        <dc:title />
      </cc:Work>
    </rdf:RDF>
  </metadata>
  <g
     inkscape:label="Layer 1"
     inkscape:groupmode="layer"
     id="layer1"
     transform="translate(-209.16756,-32.534072)">
    <g
       id="g4398"
       transform="matrix(1.25,0,0,1.25,191.42895,18.793456)">
      <path
         id="path4312"
         d="m 272.74,19.75 c 2.88,-5.51 9.04,-8.94 15.22,-8.75 24.5,0 48.99,0 73.49,0 -0.01,4.94 0,9.88 -0.04,14.82 -22.46,-0.02 -44.91,0.02 -67.37,-0.02 -2.23,0.05 -4.78,0.04 -6.45,1.77 -2.19,1.79 -2.08,4.83 -2.12,7.39 0.07,8.01 -0.01,16.03 0.03,24.04 -0.05,2.27 0.4,4.8 2.33,6.25 1.94,1.79 4.75,1.6 7.19,1.67 17.27,-0.07 34.53,-0.01 51.79,-0.03 0.03,-4.64 0.03,-9.28 -0.01,-13.92 -16.77,-0.06 -33.53,-0.01 -50.3,-0.03 0,-4.79 0.01,-9.58 0,-14.37 21.68,-0.03 43.35,-0.01 65.02,-0.01 0.01,14.35 0.02,28.7 -0.01,43.06 -22.84,0.01 -45.69,-0.03 -68.54,0.02 -4.13,-0.03 -8.47,0.31 -12.32,-1.46 -5.89,-2.53 -9.96,-8.7 -9.86,-15.12 -0.08,-11.69 0.03,-23.38 -0.05,-35.06 -0.04,-3.5 0.23,-7.15 2,-10.25 z"
         inkscape:connector-curvature="0"
         style="fill:#3c7cae" />
      <path
         id="path4314"
         d="m 83.36,15.24 c 3.76,-2.29 8.25,-3 12.6,-2.91 22.61,0.06 45.23,-0.01 67.85,0.04 -0.02,4.92 -0.01,9.84 -0.02,14.76 -22.95,-0.01 -45.9,0.01 -68.84,-0.02 -2.13,0.01 -4.52,0.16 -6.06,1.82 -2.51,2.35 -2.5,6.76 0.12,9.01 1.54,1.59 3.85,1.7 5.92,1.71 16.35,-0.02 32.7,-0.06 49.05,0 7.04,-0.02 13.89,3.81 17.58,9.79 4.66,7.22 4.17,17.31 -1.19,24.03 -4.02,5.33 -10.68,8.29 -17.31,8.15 -23.17,-0.01 -46.35,0.01 -69.53,-0.02 0.02,-4.9 0.01,-9.8 0,-14.7 23.2,-0.02 46.4,0 69.59,-0.01 2.8,0.18 5.88,-0.97 7.03,-3.71 1.93,-3.72 -1.04,-8.77 -5.27,-8.76 C 127.6,54.16 110.31,54.49 93.03,54.28 82.79,54.13 73.66,45.33 73.08,35.13 72.3,27.23 76.49,19.17 83.36,15.24 z"
         inkscape:connector-curvature="0"
         style="fill:#3c7cae" />
      <path
         style="fill:#3c7cae"
         d="M 196.78125 1.1875 C 196.74375 30.2125 196.76875 59.225 196.78125 88.25 C 226.53125 88.275 256.28125 88.2875 286.03125 88.25 C 298.55625 88.5 310.3375 78.7875 312.25 66.375 C 313.8 58.7375 311.225 50.975 306.9375 44.6875 C 311.4375 38.3125 313.8625 30.325 312.125 22.5625 C 309.9625 10.425 298.3875 0.96875 286.0625 1.21875 C 256.3125 1.14375 226.54375 1.2 196.78125 1.1875 z M 283.5 19.8125 C 286.49585 19.885132 289.66562 20.689063 291.21875 23.5 C 294.49375 28.2125 290.5375 35.55 284.75 35.25 C 261.975 35.45 239.18125 35.26875 216.40625 35.28125 C 216.39375 30.14375 216.39375 25.0125 216.40625 19.875 C 238.34375 19.875 260.28125 19.88125 282.21875 19.84375 C 282.63437 19.828125 283.07202 19.802124 283.5 19.8125 z M 281.09375 54.125 C 284.09375 54.2125 287.61875 53.91875 289.90625 56.28125 C 293.18125 59.11875 293.1375 64.69375 289.875 67.53125 C 287.9125 69.53125 284.95625 69.63125 282.34375 69.65625 C 260.36875 69.60625 238.4125 69.6375 216.4375 69.625 C 216.4125 64.475 216.39375 59.325 216.40625 54.1875 C 237.96875 54.1375 259.53125 54.225 281.09375 54.125 z "
         id="path4316"
         transform="matrix(0.8,0,0,0.8,14.190888,10.992493)" />
      <path
         id="path4390"
         d="m 69.62,114.23 c 96.52,0.01 193.04,-0.01 289.56,0.01 0,4.53 0.01,9.06 0.01,13.6 -96.53,0 -193.06,0 -289.59,0 0,-4.54 0,-9.07 0.02,-13.61 z"
         inkscape:connector-curvature="0"
         style="fill:#3c7cae;stroke:#000000;stroke-opacity:1;stroke-width:0;stroke-miterlimit:4;stroke-dasharray:none" />
      <g
         transform="matrix(2.5160917,0,0,2.4319364,-496.57573,-231.20683)"
         style="font-size:8px;font-style:normal;font-variant:normal;font-weight:normal;font-stretch:normal;text-align:start;line-height:125%;letter-spacing:0px;word-spacing:0px;writing-mode:lr-tb;text-anchor:start;fill:#3c7dae;fill-opacity:1;stroke:none;font-family:Times New Roman;-inkscape-font-specification:'Times New Roman,'"
         id="flowRoot4441">
        <path
           d="m 206.16797,132.46353 0,1.83204 -0.14453,0 c -0.0469,-0.35156 -0.13087,-0.63151 -0.25196,-0.83985 -0.12109,-0.20833 -0.29362,-0.37369 -0.51757,-0.49609 -0.22396,-0.12239 -0.45574,-0.18359 -0.69532,-0.1836 -0.27083,1e-5 -0.49479,0.0827 -0.67187,0.24805 -0.17709,0.16537 -0.26563,0.35352 -0.26563,0.56445 0,0.16147 0.056,0.3086 0.16797,0.44141 0.16146,0.19532 0.54557,0.45573 1.15235,0.78125 0.49478,0.26563 0.83268,0.4694 1.01367,0.61133 0.18098,0.14193 0.32031,0.30925 0.41797,0.50195 0.0976,0.19271 0.14648,0.39453 0.14648,0.60547 0,0.40104 -0.1556,0.74675 -0.4668,1.03711 -0.3112,0.29036 -0.71159,0.43555 -1.20117,0.43555 -0.15365,0 -0.29818,-0.0117 -0.43359,-0.0352 -0.0807,-0.013 -0.24805,-0.0606 -0.50195,-0.14258 -0.25391,-0.082 -0.41472,-0.12304 -0.48243,-0.12304 -0.0651,0 -0.11653,0.0195 -0.15429,0.0586 -0.0378,0.0391 -0.0658,0.11979 -0.084,0.24219 l -0.14453,0 0,-1.81641 0.14453,0 c 0.0677,0.38021 0.15886,0.66472 0.27344,0.85352 0.11458,0.1888 0.28971,0.3457 0.52539,0.4707 0.23568,0.125 0.49414,0.1875 0.77539,0.1875 0.32552,0 0.58268,-0.0859 0.77149,-0.25781 0.18879,-0.17188 0.2832,-0.375 0.2832,-0.60938 0,-0.13021 -0.0358,-0.26172 -0.10742,-0.39453 -0.0716,-0.13281 -0.18295,-0.25651 -0.33399,-0.37109 -0.10156,-0.0781 -0.37891,-0.24414 -0.83203,-0.49805 -0.45313,-0.2539 -0.77539,-0.45638 -0.9668,-0.60742 -0.1914,-0.15104 -0.33658,-0.31771 -0.43554,-0.5 -0.099,-0.18229 -0.14844,-0.38281 -0.14844,-0.60156 0,-0.38021 0.14583,-0.70768 0.4375,-0.98243 0.29167,-0.27473 0.66276,-0.4121 1.11328,-0.41211 0.28125,1e-5 0.57943,0.069 0.89453,0.20704 0.14583,0.0651 0.2487,0.0977 0.3086,0.0977 0.0677,10e-6 0.12304,-0.0202 0.16601,-0.0605 0.043,-0.0404 0.0775,-0.12174 0.10352,-0.24415 z"
           style=""
           id="path2994" />
        <path
           d="m 211.42187,137.73697 0,0.14453 -2.26953,0 0,-0.14453 0.1875,0 c 0.21875,0 0.37761,-0.0638 0.47657,-0.1914 0.0625,-0.0833 0.0937,-0.28386 0.0937,-0.60157 l 0,-3.42187 c 0,-0.26823 -0.0169,-0.44531 -0.0508,-0.53125 -0.026,-0.0651 -0.0794,-0.12109 -0.16015,-0.16797 -0.11459,-0.0625 -0.23438,-0.0937 -0.35938,-0.0937 l -0.1875,0 0,-0.14453 2.26953,0 0,0.14453 -0.1914,0 c -0.21615,0 -0.3737,0.0638 -0.47266,0.19141 -0.0651,0.0833 -0.0977,0.28385 -0.0977,0.60156 l 0,3.42187 c -1e-5,0.26823 0.0169,0.44532 0.0508,0.53125 0.026,0.0651 0.0807,0.1211 0.16406,0.16797 0.11198,0.0625 0.23047,0.0937 0.35547,0.0937 z"
           style=""
           id="path2996" />
        <path
           d="m 213.51953,132.58463 1.4375,0 3.23828,3.97265 0,-3.05468 c 0,-0.32552 -0.0365,-0.52864 -0.10937,-0.60938 -0.0964,-0.10937 -0.2487,-0.16406 -0.45703,-0.16406 l -0.1836,0 0,-0.14453 1.84375,0 0,0.14453 -0.1875,0 c -0.22396,0 -0.38282,0.0677 -0.47656,0.20312 -0.0573,0.0833 -0.0859,0.27345 -0.0859,0.57032 l 0,4.46484 -0.14062,0 -3.49219,-4.26562 0,3.26171 c 0,0.32553 0.0351,0.52865 0.10547,0.60938 0.099,0.10937 0.2513,0.16406 0.45703,0.16406 l 0.1875,0 0,0.14453 -1.84375,0 0,-0.14453 0.18359,0 c 0.22657,0 0.38672,-0.0677 0.48047,-0.20312 0.0573,-0.0833 0.0859,-0.27344 0.0859,-0.57032 l 0,-3.68359 c -0.15365,-0.17968 -0.27018,-0.29817 -0.34961,-0.35547 -0.0794,-0.0573 -0.19596,-0.11067 -0.34961,-0.16015 -0.0755,-0.0234 -0.1901,-0.0352 -0.34375,-0.0352 z"
           style=""
           id="path2998" />
        <path
           d="m 226.22266,132.46353 0.12109,1.80079 -0.12109,0 c -0.16147,-0.53906 -0.39194,-0.92708 -0.69141,-1.16407 -0.29948,-0.23697 -0.65886,-0.35546 -1.07813,-0.35547 -0.35156,1e-5 -0.66927,0.0892 -0.95312,0.26758 -0.28386,0.17839 -0.50716,0.4629 -0.66992,0.85352 -0.16276,0.39063 -0.24414,0.8763 -0.24414,1.45703 0,0.47917 0.0768,0.89453 0.23047,1.24609 0.15364,0.35157 0.38476,0.6211 0.69336,0.8086 0.30859,0.1875 0.6608,0.28125 1.05664,0.28125 0.34374,0 0.64713,-0.0736 0.91015,-0.22071 0.26302,-0.14713 0.55208,-0.43945 0.86719,-0.87695 l 0.12109,0.0781 c -0.26563,0.47135 -0.57552,0.8164 -0.92968,1.03515 -0.35417,0.21875 -0.77475,0.32813 -1.26172,0.32813 -0.87761,0 -1.5573,-0.32552 -2.03907,-0.97657 -0.35937,-0.48437 -0.53906,-1.05468 -0.53906,-1.71093 0,-0.52865 0.11849,-1.01432 0.35547,-1.45703 0.23698,-0.44271 0.56315,-0.78581 0.97852,-1.0293 0.41536,-0.24349 0.86914,-0.36523 1.36132,-0.36524 0.38281,1e-5 0.76042,0.0938 1.13282,0.28125 0.10937,0.0573 0.18749,0.0859 0.23437,0.0859 0.0703,10e-6 0.13151,-0.0247 0.1836,-0.0742 0.0677,-0.0703 0.11588,-0.16796 0.14453,-0.29297 z"
           style=""
           id="path3000" />
        <path
           d="m 233.33594,136.41666 0.1289,0.0273 -0.45312,1.4375 -4.10156,0 0,-0.14453 0.19921,0 c 0.22396,0 0.38412,-0.0729 0.48047,-0.21875 0.0547,-0.0833 0.082,-0.27604 0.082,-0.57812 l 0,-3.41797 c 0,-0.33073 -0.0365,-0.53776 -0.10937,-0.6211 -0.10156,-0.11457 -0.2526,-0.17187 -0.45313,-0.17187 l -0.19921,0 0,-0.14453 2.39843,0 0,0.14453 c -0.28125,-0.003 -0.47851,0.0234 -0.59179,0.0781 -0.11329,0.0547 -0.19076,0.12371 -0.23243,0.20704 -0.0417,0.0833 -0.0625,0.28255 -0.0625,0.59765 l 0,3.32813 c 0,0.21614 0.0208,0.36458 0.0625,0.44531 0.0312,0.0547 0.0794,0.095 0.14454,0.12109 0.0651,0.026 0.26822,0.0391 0.60937,0.0391 l 0.38672,0 c 0.40625,0 0.6914,-0.0299 0.85547,-0.0898 0.16406,-0.0599 0.3138,-0.16601 0.44922,-0.31836 0.13541,-0.15234 0.27083,-0.39257 0.40625,-0.7207 z"
           style=""
           id="path3002" />
        <path
           d="m 239.30078,136.10807 -2.05078,0 -0.35938,0.83593 c -0.0885,0.20573 -0.13281,0.35938 -0.13281,0.46094 0,0.0807 0.0384,0.15169 0.11524,0.21289 0.0768,0.0612 0.24283,0.10091 0.49804,0.11914 l 0,0.14453 -1.66797,0 0,-0.14453 c 0.22136,-0.0391 0.36459,-0.0898 0.42969,-0.15234 0.13281,-0.125 0.27995,-0.37891 0.44141,-0.76172 l 1.86328,-4.35938 0.13672,0 1.84375,4.40625 c 0.14843,0.35417 0.2832,0.58399 0.4043,0.68946 0.12108,0.10547 0.2897,0.16471 0.50585,0.17773 l 0,0.14453 -2.08984,0 0,-0.14453 c 0.21093,-0.0104 0.35351,-0.0456 0.42774,-0.10547 0.0742,-0.0599 0.11132,-0.13281 0.11132,-0.21875 0,-0.11458 -0.0521,-0.29557 -0.15625,-0.54297 z m -0.10937,-0.28907 -0.89844,-2.14062 -0.92188,2.14062 z"
           style=""
           id="path3004" />
        <path
           d="m 245.89062,137.73697 0,0.14453 -2.26953,0 0,-0.14453 0.1875,0 c 0.21875,0 0.37761,-0.0638 0.47657,-0.1914 0.0625,-0.0833 0.0937,-0.28386 0.0937,-0.60157 l 0,-3.42187 c 0,-0.26823 -0.0169,-0.44531 -0.0508,-0.53125 -0.026,-0.0651 -0.0794,-0.12109 -0.16015,-0.16797 -0.11459,-0.0625 -0.23438,-0.0937 -0.35938,-0.0937 l -0.1875,0 0,-0.14453 2.26953,0 0,0.14453 -0.1914,0 c -0.21615,0 -0.3737,0.0638 -0.47266,0.19141 -0.0651,0.0833 -0.0977,0.28385 -0.0977,0.60156 l 0,3.42187 c -1e-5,0.26823 0.0169,0.44532 0.0508,0.53125 0.026,0.0651 0.0807,0.1211 0.16406,0.16797 0.11198,0.0625 0.23047,0.0937 0.35547,0.0937 z"
           style=""
           id="path3006" />
        <path
           d="m 253.5,137.8815 -1.41406,0 -1.79297,-2.47656 c -0.13282,0.005 -0.24089,0.008 -0.32422,0.008 -0.0339,1e-5 -0.0703,-6.5e-4 -0.10938,-0.002 -0.0391,-0.001 -0.0794,-0.003 -0.12109,-0.006 l 0,1.53906 c 0,0.33334 0.0365,0.54037 0.10938,0.6211 0.099,0.11458 0.24739,0.17187 0.44531,0.17187 l 0.20703,0 0,0.14453 -2.26953,0 0,-0.14453 0.19922,0 c 0.22396,0 0.38411,-0.0729 0.48047,-0.21875 0.0547,-0.0807 0.082,-0.27213 0.082,-0.57422 l 0,-3.42187 c 0,-0.33333 -0.0365,-0.54036 -0.10938,-0.6211 -0.10156,-0.11457 -0.2526,-0.17187 -0.45312,-0.17187 l -0.19922,0 0,-0.14453 1.92969,0 c 0.56249,0 0.97721,0.041 1.24414,0.12305 0.26692,0.082 0.49348,0.23307 0.67968,0.45312 0.1862,0.22006 0.2793,0.48243 0.2793,0.78711 0,0.32552 -0.10612,0.60808 -0.31836,0.84766 -0.21224,0.23958 -0.54102,0.40885 -0.98633,0.50781 l 1.09375,1.51953 c 0.25,0.34896 0.46484,0.58073 0.64453,0.69531 0.17969,0.11459 0.41406,0.1875 0.70313,0.21875 z m -3.76172,-2.72265 c 0.0495,0 0.0924,6.5e-4 0.12891,0.002 0.0365,0.001 0.0664,0.002 0.0898,0.002 0.50521,1e-5 0.88607,-0.10937 1.14258,-0.32812 0.25651,-0.21875 0.38476,-0.49739 0.38476,-0.83594 0,-0.33072 -0.10351,-0.5996 -0.31054,-0.80664 -0.20704,-0.20703 -0.48112,-0.31054 -0.82227,-0.31055 -0.15104,1e-5 -0.35547,0.0248 -0.61328,0.0742 z"
           style=""
           id="path3008" />
        <path
           d="m 263.13281,135.17838 c 0.36719,0.0781 0.64193,0.20313 0.82422,0.375 0.2526,0.23958 0.3789,0.53255 0.37891,0.8789 -10e-6,0.26303 -0.0833,0.51498 -0.25,0.75586 -0.16667,0.24089 -0.39519,0.41667 -0.68555,0.52735 -0.29037,0.11067 -0.73373,0.16601 -1.33008,0.16601 l -2.5,0 0,-0.14453 0.19922,0 c 0.22135,0 0.38021,-0.0703 0.47656,-0.21094 0.0599,-0.0911 0.0899,-0.28515 0.0899,-0.58203 l 0,-3.42187 c 0,-0.32812 -0.0378,-0.53515 -0.11328,-0.6211 -0.10157,-0.11457 -0.25261,-0.17187 -0.45313,-0.17187 l -0.19922,0 0,-0.14453 2.28906,0 c 0.42709,0 0.76953,0.0312 1.02735,0.0937 0.39062,0.0937 0.6888,0.25977 0.89453,0.49805 0.20572,0.23828 0.30859,0.51237 0.30859,0.82226 0,0.26563 -0.0807,0.50326 -0.24218,0.71289 -0.16147,0.20964 -0.39975,0.36524 -0.71485,0.4668 z m -2.04687,-0.21094 c 0.0964,0.0182 0.20638,0.0319 0.33008,0.041 0.12369,0.009 0.25976,0.0137 0.4082,0.0137 0.3802,0 0.66601,-0.041 0.85742,-0.12305 0.1914,-0.082 0.33789,-0.20768 0.43945,-0.37695 0.10156,-0.16927 0.15234,-0.35416 0.15235,-0.55469 -10e-6,-0.30989 -0.12631,-0.57421 -0.37891,-0.79297 -0.25261,-0.21874 -0.6211,-0.32812 -1.10547,-0.32812 -0.26042,0 -0.49479,0.0286 -0.70312,0.0859 z m 0,2.53125 c 0.30208,0.0703 0.60026,0.10547 0.89453,0.10547 0.47135,0 0.83072,-0.10612 1.07812,-0.31836 0.2474,-0.21224 0.37109,-0.47461 0.3711,-0.78711 -10e-6,-0.20573 -0.056,-0.40364 -0.16797,-0.59375 -0.11198,-0.1901 -0.29428,-0.33984 -0.54688,-0.44922 -0.2526,-0.10937 -0.5651,-0.16406 -0.9375,-0.16406 -0.16146,0 -0.29948,0.003 -0.41406,0.008 -0.11458,0.005 -0.20703,0.0143 -0.27734,0.0273 z"
           style=""
           id="path3010" />
        <path
           d="m 272.1875,137.8815 -1.41406,0 -1.79297,-2.47656 c -0.13282,0.005 -0.24089,0.008 -0.32422,0.008 -0.0339,1e-5 -0.0703,-6.5e-4 -0.10938,-0.002 -0.0391,-0.001 -0.0794,-0.003 -0.12109,-0.006 l 0,1.53906 c 0,0.33334 0.0365,0.54037 0.10938,0.6211 0.099,0.11458 0.24739,0.17187 0.44531,0.17187 l 0.20703,0 0,0.14453 -2.26953,0 0,-0.14453 0.19922,0 c 0.22396,0 0.38411,-0.0729 0.48047,-0.21875 0.0547,-0.0807 0.082,-0.27213 0.082,-0.57422 l 0,-3.42187 c 0,-0.33333 -0.0365,-0.54036 -0.10938,-0.6211 -0.10156,-0.11457 -0.2526,-0.17187 -0.45312,-0.17187 l -0.19922,0 0,-0.14453 1.92969,0 c 0.56249,0 0.97721,0.041 1.24414,0.12305 0.26692,0.082 0.49348,0.23307 0.67968,0.45312 0.1862,0.22006 0.2793,0.48243 0.2793,0.78711 0,0.32552 -0.10612,0.60808 -0.31836,0.84766 -0.21224,0.23958 -0.54102,0.40885 -0.98633,0.50781 l 1.09375,1.51953 c 0.25,0.34896 0.46484,0.58073 0.64453,0.69531 0.17969,0.11459 0.41406,0.1875 0.70313,0.21875 z m -3.76172,-2.72265 c 0.0495,0 0.0925,6.5e-4 0.12891,0.002 0.0365,0.001 0.0664,0.002 0.0898,0.002 0.50521,1e-5 0.88607,-0.10937 1.14258,-0.32812 0.25651,-0.21875 0.38476,-0.49739 0.38476,-0.83594 0,-0.33072 -0.10351,-0.5996 -0.31054,-0.80664 -0.20704,-0.20703 -0.48112,-0.31054 -0.82227,-0.31055 -0.15104,1e-5 -0.35547,0.0248 -0.61328,0.0742 z"
           style=""
           id="path3012" />
        <path
           d="m 277.05078,132.46353 c 0.6875,1e-5 1.2832,0.26108 1.78711,0.78321 0.5039,0.52214 0.75585,1.17383 0.75586,1.95508 -10e-6,0.80469 -0.25391,1.47265 -0.76172,2.0039 -0.50782,0.53125 -1.1224,0.79688 -1.84375,0.79688 -0.72917,0 -1.3418,-0.25912 -1.83789,-0.77735 -0.49609,-0.51822 -0.74414,-1.1888 -0.74414,-2.01172 0,-0.84114 0.28646,-1.52734 0.85937,-2.05859 0.4974,-0.46093 1.09245,-0.6914 1.78516,-0.69141 z m -0.0742,0.28516 c -0.47396,1e-5 -0.85417,0.17579 -1.14062,0.52734 -0.35677,0.43751 -0.53516,1.07813 -0.53516,1.92188 0,0.86458 0.1849,1.52995 0.55469,1.99609 0.28385,0.35417 0.65885,0.53125 1.125,0.53125 0.49739,0 0.9082,-0.19401 1.23242,-0.58203 0.32421,-0.38802 0.48632,-1 0.48633,-1.83594 -1e-5,-0.90624 -0.17839,-1.58202 -0.53516,-2.02734 -0.28646,-0.35416 -0.68229,-0.53124 -1.1875,-0.53125 z"
           style=""
           id="path3014" />
        <path
           d="m 285.56641,136.10807 -2.05079,0 -0.35937,0.83593 c -0.0885,0.20573 -0.13281,0.35938 -0.13281,0.46094 0,0.0807 0.0384,0.15169 0.11523,0.21289 0.0768,0.0612 0.24284,0.10091 0.49805,0.11914 l 0,0.14453 -1.66797,0 0,-0.14453 c 0.22135,-0.0391 0.36458,-0.0898 0.42969,-0.15234 0.13281,-0.125 0.27994,-0.37891 0.4414,-0.76172 l 1.86328,-4.35938 0.13672,0 1.84375,4.40625 c 0.14844,0.35417 0.2832,0.58399 0.4043,0.68946 0.12109,0.10547 0.28971,0.16471 0.50586,0.17773 l 0,0.14453 -2.08984,0 0,-0.14453 c 0.21093,-0.0104 0.35351,-0.0456 0.42773,-0.10547 0.0742,-0.0599 0.11132,-0.13281 0.11133,-0.21875 -1e-5,-0.11458 -0.0521,-0.29557 -0.15625,-0.54297 z m -0.10938,-0.28907 -0.89844,-2.14062 -0.92187,2.14062 z"
           style=""
           id="path3016" />
        <path
           d="m 289.82422,137.8815 0,-0.14453 0.19922,0 c 0.22396,0 0.38281,-0.0716 0.47656,-0.21484 0.0573,-0.0859 0.0859,-0.27865 0.0859,-0.57813 l 0,-3.42187 c 0,-0.33073 -0.0365,-0.53776 -0.10938,-0.6211 -0.10156,-0.11457 -0.2526,-0.17187 -0.45312,-0.17187 l -0.19922,0 0,-0.14453 2.15625,0 c 0.79166,0 1.39388,0.0898 1.80664,0.26953 0.41276,0.17969 0.74479,0.47917 0.99609,0.89844 0.2513,0.41927 0.37695,0.90365 0.37696,1.45312 -1e-5,0.73698 -0.22397,1.35287 -0.67188,1.84766 -0.50261,0.55208 -1.26823,0.82812 -2.29687,0.82812 z m 1.51172,-0.38281 c 0.33072,0.0729 0.60807,0.10938 0.83203,0.10938 0.60416,0 1.10546,-0.21224 1.5039,-0.63672 0.39844,-0.42448 0.59766,-1 0.59766,-1.72657 0,-0.73176 -0.19922,-1.30859 -0.59766,-1.73046 -0.39844,-0.42187 -0.91015,-0.63281 -1.53515,-0.63282 -0.23438,1e-5 -0.50131,0.0378 -0.80078,0.11328 z"
           style=""
           id="path3018" />
        <path
           d="m 302.28516,132.46353 0.12109,1.80079 -0.12109,0 c -0.16147,-0.53906 -0.39194,-0.92708 -0.69141,-1.16407 -0.29948,-0.23697 -0.65886,-0.35546 -1.07813,-0.35547 -0.35156,1e-5 -0.66927,0.0892 -0.95312,0.26758 -0.28386,0.17839 -0.50716,0.4629 -0.66992,0.85352 -0.16276,0.39063 -0.24414,0.8763 -0.24414,1.45703 0,0.47917 0.0768,0.89453 0.23047,1.24609 0.15364,0.35157 0.38476,0.6211 0.69336,0.8086 0.30859,0.1875 0.6608,0.28125 1.05664,0.28125 0.34374,0 0.64713,-0.0736 0.91015,-0.22071 0.26302,-0.14713 0.55208,-0.43945 0.86719,-0.87695 l 0.12109,0.0781 c -0.26563,0.47135 -0.57552,0.8164 -0.92968,1.03515 -0.35417,0.21875 -0.77475,0.32813 -1.26172,0.32813 -0.87761,0 -1.5573,-0.32552 -2.03907,-0.97657 -0.35937,-0.48437 -0.53906,-1.05468 -0.53906,-1.71093 0,-0.52865 0.11849,-1.01432 0.35547,-1.45703 0.23698,-0.44271 0.56315,-0.78581 0.97852,-1.0293 0.41536,-0.24349 0.86914,-0.36523 1.36132,-0.36524 0.38281,1e-5 0.76042,0.0938 1.13282,0.28125 0.10937,0.0573 0.18749,0.0859 0.23437,0.0859 0.0703,10e-6 0.13151,-0.0247 0.1836,-0.0742 0.0677,-0.0703 0.11588,-0.16796 0.14453,-0.29297 z"
           style=""
           id="path3020" />
        <path
           d="m 308.47266,136.10807 -2.05079,0 -0.35937,0.83593 c -0.0885,0.20573 -0.13281,0.35938 -0.13281,0.46094 0,0.0807 0.0384,0.15169 0.11523,0.21289 0.0768,0.0612 0.24284,0.10091 0.49805,0.11914 l 0,0.14453 -1.66797,0 0,-0.14453 c 0.22135,-0.0391 0.36458,-0.0898 0.42969,-0.15234 0.13281,-0.125 0.27994,-0.37891 0.4414,-0.76172 l 1.86328,-4.35938 0.13672,0 1.84375,4.40625 c 0.14844,0.35417 0.2832,0.58399 0.4043,0.68946 0.12109,0.10547 0.28971,0.16471 0.50586,0.17773 l 0,0.14453 -2.08984,0 0,-0.14453 c 0.21093,-0.0104 0.35351,-0.0456 0.42773,-0.10547 0.0742,-0.0599 0.11132,-0.13281 0.11133,-0.21875 -1e-5,-0.11458 -0.0521,-0.29557 -0.15625,-0.54297 z m -0.10938,-0.28907 -0.89844,-2.14062 -0.92187,2.14062 z"
           style=""
           id="path3022" />
        <path
           d="m 316.26172,132.46353 0,1.83204 -0.14453,0 c -0.0469,-0.35156 -0.13087,-0.63151 -0.25196,-0.83985 -0.12109,-0.20833 -0.29362,-0.37369 -0.51757,-0.49609 -0.22396,-0.12239 -0.45574,-0.18359 -0.69532,-0.1836 -0.27083,1e-5 -0.49479,0.0827 -0.67187,0.24805 -0.17709,0.16537 -0.26563,0.35352 -0.26563,0.56445 0,0.16147 0.056,0.3086 0.16797,0.44141 0.16146,0.19532 0.54557,0.45573 1.15235,0.78125 0.49478,0.26563 0.83268,0.4694 1.01367,0.61133 0.18098,0.14193 0.32031,0.30925 0.41797,0.50195 0.0977,0.19271 0.14648,0.39453 0.14648,0.60547 0,0.40104 -0.1556,0.74675 -0.4668,1.03711 -0.3112,0.29036 -0.71159,0.43555 -1.20117,0.43555 -0.15365,0 -0.29818,-0.0117 -0.43359,-0.0352 -0.0807,-0.013 -0.24805,-0.0606 -0.50195,-0.14258 -0.25391,-0.082 -0.41472,-0.12304 -0.48243,-0.12304 -0.0651,0 -0.11653,0.0195 -0.15429,0.0586 -0.0378,0.0391 -0.0658,0.11979 -0.084,0.24219 l -0.14453,0 0,-1.81641 0.14453,0 c 0.0677,0.38021 0.15886,0.66472 0.27344,0.85352 0.11458,0.1888 0.28971,0.3457 0.52539,0.4707 0.23568,0.125 0.49414,0.1875 0.77539,0.1875 0.32552,0 0.58268,-0.0859 0.77149,-0.25781 0.18879,-0.17188 0.2832,-0.375 0.2832,-0.60938 0,-0.13021 -0.0358,-0.26172 -0.10742,-0.39453 -0.0716,-0.13281 -0.18295,-0.25651 -0.33399,-0.37109 -0.10156,-0.0781 -0.37891,-0.24414 -0.83203,-0.49805 -0.45313,-0.2539 -0.77539,-0.45638 -0.9668,-0.60742 -0.1914,-0.15104 -0.33658,-0.31771 -0.43554,-0.5 -0.099,-0.18229 -0.14844,-0.38281 -0.14844,-0.60156 0,-0.38021 0.14583,-0.70768 0.4375,-0.98243 0.29167,-0.27473 0.66276,-0.4121 1.11328,-0.41211 0.28125,1e-5 0.57943,0.069 0.89453,0.20704 0.14583,0.0651 0.2487,0.0977 0.3086,0.0977 0.0677,10e-6 0.12304,-0.0202 0.16601,-0.0605 0.043,-0.0404 0.0775,-0.12174 0.10352,-0.24415 z"
           style=""
           id="path3024" />
        <path
           d="m 323.67578,132.58463 0.0586,1.24219 -0.14843,0 c -0.0286,-0.21875 -0.0677,-0.375 -0.11719,-0.46875 -0.0807,-0.15104 -0.18816,-0.26237 -0.32227,-0.33399 -0.13411,-0.0716 -0.31055,-0.10742 -0.52929,-0.10742 l -0.7461,0 0,4.04687 c 0,0.32553 0.0352,0.52865 0.10547,0.60938 0.099,0.10937 0.2513,0.16406 0.45703,0.16406 l 0.1836,0 0,0.14453 -2.2461,0 0,-0.14453 0.1875,0 c 0.22396,0 0.38281,-0.0677 0.47657,-0.20312 0.0573,-0.0833 0.0859,-0.27344 0.0859,-0.57032 l 0,-4.04687 -0.63672,0 c -0.24739,0 -0.42317,0.0182 -0.52734,0.0547 -0.13542,0.0495 -0.2513,0.14453 -0.34766,0.28515 -0.0964,0.14063 -0.15364,0.33074 -0.17187,0.57032 l -0.14844,0 0.0625,-1.24219 z"
           style=""
           id="path3026" />
        <path
           d="m 334.84766,132.46353 0.13671,1.67188 -0.13671,0 c -0.13803,-0.41666 -0.31641,-0.73046 -0.53516,-0.94141 -0.31511,-0.30468 -0.72006,-0.45702 -1.21484,-0.45703 -0.67449,10e-6 -1.18751,0.26693 -1.53907,0.80078 -0.29427,0.45053 -0.4414,0.98699 -0.4414,1.60938 0,0.50521 0.0976,0.96615 0.29297,1.38281 0.19531,0.41667 0.45117,0.72201 0.76757,0.91602 0.31641,0.19401 0.64128,0.29101 0.97461,0.29101 0.19531,0 0.38411,-0.0247 0.56641,-0.0742 0.18229,-0.0495 0.35807,-0.12239 0.52734,-0.21875 l 0,-1.53125 c 0,-0.26562 -0.0202,-0.43945 -0.0605,-0.52148 -0.0404,-0.082 -0.10287,-0.14453 -0.1875,-0.1875 -0.0846,-0.043 -0.23373,-0.0644 -0.44727,-0.0644 l 0,-0.14844 2.05078,0 0,0.14844 -0.0976,0 c -0.20313,0 -0.34246,0.0677 -0.41797,0.20312 -0.0521,0.0964 -0.0781,0.28646 -0.0781,0.57031 l 0,1.6211 c -0.29948,0.16146 -0.59505,0.27994 -0.88672,0.35547 -0.29167,0.0755 -0.61589,0.11328 -0.97265,0.11328 -1.02344,0 -1.80079,-0.32813 -2.33203,-0.98438 -0.39844,-0.49218 -0.59766,-1.05989 -0.59766,-1.70312 0,-0.46615 0.11198,-0.91276 0.33594,-1.33985 0.26562,-0.5078 0.6302,-0.89843 1.09375,-1.17187 0.38802,-0.22656 0.84635,-0.33984 1.375,-0.33985 0.1927,1e-5 0.36783,0.0156 0.52539,0.0469 0.15755,0.0312 0.38085,0.10027 0.66992,0.20703 0.14583,0.0547 0.24349,0.082 0.29297,0.082 0.0495,10e-6 0.0918,-0.0228 0.12695,-0.0684 0.0351,-0.0456 0.0566,-0.13476 0.0645,-0.26758 z"
           style=""
           id="path3028" />
        <path
           d="m 343.125,137.8815 -1.41406,0 -1.79297,-2.47656 c -0.13282,0.005 -0.24089,0.008 -0.32422,0.008 -0.0339,1e-5 -0.0703,-6.5e-4 -0.10938,-0.002 -0.0391,-0.001 -0.0794,-0.003 -0.12109,-0.006 l 0,1.53906 c 0,0.33334 0.0365,0.54037 0.10938,0.6211 0.099,0.11458 0.24739,0.17187 0.44531,0.17187 l 0.20703,0 0,0.14453 -2.26953,0 0,-0.14453 0.19922,0 c 0.22396,0 0.38411,-0.0729 0.48047,-0.21875 0.0547,-0.0807 0.082,-0.27213 0.082,-0.57422 l 0,-3.42187 c 0,-0.33333 -0.0365,-0.54036 -0.10938,-0.6211 -0.10156,-0.11457 -0.2526,-0.17187 -0.45312,-0.17187 l -0.19922,0 0,-0.14453 1.92969,0 c 0.56249,0 0.97721,0.041 1.24414,0.12305 0.26692,0.082 0.49348,0.23307 0.67968,0.45312 0.1862,0.22006 0.2793,0.48243 0.2793,0.78711 0,0.32552 -0.10612,0.60808 -0.31836,0.84766 -0.21224,0.23958 -0.54102,0.40885 -0.98633,0.50781 l 1.09375,1.51953 c 0.25,0.34896 0.46484,0.58073 0.64453,0.69531 0.17969,0.11459 0.41406,0.1875 0.70313,0.21875 z m -3.76172,-2.72265 c 0.0495,0 0.0925,6.5e-4 0.12891,0.002 0.0365,0.001 0.0664,0.002 0.0898,0.002 0.50521,1e-5 0.88607,-0.10937 1.14258,-0.32812 0.25651,-0.21875 0.38476,-0.49739 0.38476,-0.83594 0,-0.33072 -0.10351,-0.5996 -0.31054,-0.80664 -0.20704,-0.20703 -0.48112,-0.31054 -0.82227,-0.31055 -0.15104,1e-5 -0.35547,0.0248 -0.61328,0.0742 z"
           style=""
           id="path3030" />
        <path
           d="m 347.98828,132.46353 c 0.6875,1e-5 1.2832,0.26108 1.78711,0.78321 0.5039,0.52214 0.75585,1.17383 0.75586,1.95508 -10e-6,0.80469 -0.25391,1.47265 -0.76172,2.0039 -0.50782,0.53125 -1.1224,0.79688 -1.84375,0.79688 -0.72917,0 -1.3418,-0.25912 -1.83789,-0.77735 -0.49609,-0.51822 -0.74414,-1.1888 -0.74414,-2.01172 0,-0.84114 0.28646,-1.52734 0.85937,-2.05859 0.4974,-0.46093 1.09245,-0.6914 1.78516,-0.69141 z m -0.0742,0.28516 c -0.47396,1e-5 -0.85417,0.17579 -1.14062,0.52734 -0.35677,0.43751 -0.53516,1.07813 -0.53516,1.92188 0,0.86458 0.1849,1.52995 0.55469,1.99609 0.28385,0.35417 0.65885,0.53125 1.125,0.53125 0.49739,0 0.9082,-0.19401 1.23242,-0.58203 0.32421,-0.38802 0.48632,-1 0.48633,-1.83594 -1e-5,-0.90624 -0.17839,-1.58202 -0.53516,-2.02734 -0.28646,-0.35416 -0.68229,-0.53124 -1.1875,-0.53125 z"
           style=""
           id="path3032" />
        <path
           d="m 356.66016,132.72916 0,-0.14453 1.875,0 0,0.14453 -0.19922,0 c -0.20834,0 -0.3685,0.0872 -0.48047,0.26172 -0.0547,0.0807 -0.082,0.26823 -0.082,0.5625 l 0,2.14844 c -10e-6,0.53125 -0.0527,0.94336 -0.15821,1.23632 -0.10547,0.29297 -0.3125,0.54428 -0.62109,0.75391 -0.3086,0.20964 -0.72852,0.31445 -1.25977,0.31445 -0.57812,0 -1.01692,-0.10026 -1.3164,-0.30078 -0.29948,-0.20052 -0.51172,-0.47005 -0.63672,-0.80859 -0.0833,-0.23177 -0.125,-0.66667 -0.125,-1.30469 l 0,-2.07031 c 0,-0.32552 -0.0449,-0.53906 -0.13477,-0.64063 -0.0898,-0.10155 -0.23502,-0.15234 -0.43554,-0.15234 l -0.19922,0 0,-0.14453 2.28906,0 0,0.14453 -0.20312,0 c -0.21876,0 -0.37501,0.069 -0.46875,0.20703 -0.0651,0.0938 -0.0977,0.28907 -0.0977,0.58594 l 0,2.30859 c 0,0.20573 0.0189,0.44141 0.0566,0.70703 0.0378,0.26563 0.10612,0.47266 0.20508,0.6211 0.099,0.14844 0.24153,0.27083 0.42773,0.36718 0.1862,0.0964 0.41471,0.14454 0.68555,0.14454 0.34635,0 0.65625,-0.0755 0.92969,-0.22657 0.27343,-0.15104 0.46028,-0.3444 0.56054,-0.58007 0.10026,-0.23568 0.15039,-0.63477 0.15039,-1.19727 l 0,-2.14453 c 0,-0.33073 -0.0365,-0.53776 -0.10937,-0.6211 -0.10157,-0.11457 -0.25261,-0.17187 -0.45313,-0.17187 z"
           style=""
           id="path3034" />
        <path
           d="m 362.26562,135.40103 0,1.54297 c 0,0.33334 0.0365,0.54037 0.10938,0.6211 0.099,0.11458 0.2487,0.17187 0.44922,0.17187 l 0.20312,0 0,0.14453 -2.26953,0 0,-0.14453 0.19922,0 c 0.22396,0 0.38412,-0.0729 0.48047,-0.21875 0.0521,-0.0807 0.0781,-0.27213 0.0781,-0.57422 l 0,-3.42187 c 0,-0.33333 -0.0351,-0.54036 -0.10546,-0.6211 -0.10157,-0.11457 -0.25261,-0.17187 -0.45313,-0.17187 l -0.19922,0 0,-0.14453 1.94141,0 c 0.47395,0 0.84765,0.0488 1.12109,0.14648 0.27344,0.0977 0.50391,0.26238 0.69141,0.49414 0.18749,0.23178 0.28124,0.50652 0.28125,0.82422 -1e-5,0.4323 -0.14258,0.78386 -0.42774,1.05469 -0.28516,0.27084 -0.68815,0.40625 -1.20898,0.40625 -0.12761,0 -0.26563,-0.009 -0.41406,-0.0273 -0.14844,-0.0182 -0.3073,-0.0456 -0.47657,-0.082 z m 0,-0.22265 c 0.13802,0.026 0.26042,0.0456 0.36719,0.0586 0.10677,0.013 0.19792,0.0195 0.27344,0.0195 0.27083,1e-5 0.50455,-0.10481 0.70117,-0.31445 0.19661,-0.20963 0.29492,-0.48112 0.29492,-0.81445 0,-0.22917 -0.0469,-0.44206 -0.14062,-0.63867 -0.0937,-0.19661 -0.22657,-0.34375 -0.39844,-0.44141 -0.17188,-0.0976 -0.36719,-0.14648 -0.58594,-0.14649 -0.13281,1e-5 -0.30338,0.0248 -0.51172,0.0742 z"
           style=""
           id="path3036" />
      </g>
    </g>
  </g>
</svg>
